<svg width="268" height="55" viewBox="0 0 268 55" fill="none" xmlns="http://www.w3.org/2000/svg">
<path d="M15.414 23.109C12.689 21.329 8.748 21.539 6.061 19.894C5.213 19.313 5.207 18.066 5.784 17.31C8.211 15.019 12.709 16.259 15.445 17.787L16.983 14.003C11.791 10.787 0.671 11.05 0.431 18.802C0.347 25.246 8.324 24.392 12.275 26.693C13.634 27.747 12.799 29.728 11.183 30.077C8.218 30.921 4.175 29.908 1.692 28.124L0 31.877C3.468 34.445 9.959 35.158 13.859 33.446C18.213 31.87 19.52 25.506 15.414 23.109Z" fill="white"/>
<path d="M32.662 25.632C32.659 27.338 32.19 28.816 30.816 29.616C29.536 30.36 27.307 30.262 26.371 29.124C25.786 28.478 25.494 27.468 25.494 26.094V17.449H20.695V26.802C20.695 28.505 20.992 29.905 21.587 31.001C23.652 34.938 30.081 35.363 32.909 32.036V34.001H37.462V17.449H32.663V25.633L32.662 25.632Z" fill="white"/>
<path d="M55.475 18.264C52.679 16.659 48.191 16.727 46.076 19.371V17.449H41.492V40H46.291V32.231C49.575 35.782 56.243 34.42 58.428 30.247C60.598 26.436 59.549 20.388 55.475 18.264ZM54.09 28.17C53.049 30.254 50.233 30.893 48.291 29.755C46.153 28.601 45.711 25.274 46.784 23.264C47.813 21.202 50.666 20.555 52.583 21.695C54.712 22.858 55.204 26.134 54.09 28.17Z" fill="white"/>
<path d="M76.481 18.264C73.685 16.659 69.197 16.727 67.082 19.371V17.449H62.498V40H67.297V32.231C70.581 35.782 77.249 34.42 79.434 30.247C81.604 26.436 80.555 20.388 76.481 18.264ZM75.096 28.17C74.055 30.254 71.239 30.893 69.297 29.755C67.159 28.601 66.717 25.274 67.79 23.264C68.819 21.202 71.672 20.555 73.589 21.695C75.718 22.858 76.21 26.134 75.096 28.17Z" fill="white"/>
<path d="M96.158 18.295C90.446 15.247 82.182 18.656 82.376 25.725C82.201 32.752 90.462 36.23 96.158 33.139C101.99 30.273 102.016 21.13 96.158 18.295ZM95.142 28.17C94.118 30.258 91.261 30.89 89.328 29.755C87.182 28.604 86.692 25.278 87.805 23.264C88.862 21.203 91.696 20.555 93.635 21.695C95.779 22.85 96.215 26.134 95.142 28.17Z" fill="white"/>
<path d="M108.046 19.65V17.448H103.462V34H108.261V26.186C108.113 22.75 110.669 21.181 113.737 21.632V17.202C111.344 17.227 109.379 17.843 108.046 19.65Z" fill="white"/>
<path d="M124.535 30.431C123.219 30.435 122.46 29.578 122.474 28.246V21.509H126.596V17.817H122.474V13.786H117.675V17.817H115.122V21.509H117.675V28.308C117.675 30.277 118.218 31.759 119.305 32.754C121.174 34.554 125.453 34.779 127.765 33.2L126.474 29.816C125.94 30.226 125.293 30.431 124.535 30.431Z" fill="white"/>
<path d="M196.027 12.465L191.009 27.714L186.09 12.465H181.475L176.397 27.602L171.538 12.465H166.369L173.415 34H178.768L183.65 19.408L188.398 34H193.75L200.796 12.465H196.027Z" fill="white"/>
<path d="M214.147 18.295C208.435 15.247 200.171 18.656 200.365 25.725C200.19 32.752 208.451 36.23 214.147 33.139C219.979 30.273 220.005 21.13 214.147 18.295ZM213.132 28.17C212.108 30.258 209.251 30.89 207.318 29.755C205.172 28.604 204.682 25.278 205.795 23.264C206.852 21.203 209.686 20.555 211.625 21.695C213.769 22.85 214.205 26.134 213.132 28.17Z" fill="white"/>
<path d="M226.035 19.65V17.448H221.451V34H226.25V26.186C226.102 22.75 228.658 21.181 231.726 21.632V17.202C229.333 17.227 227.367 17.843 226.034 19.65H226.035Z" fill="white"/>
<path d="M251.604 17.448H245.881L238.867 24.099V11H234.068V34H238.867V29.798L241.185 27.519L246.404 34H252.218L244.71 24.456L251.604 17.448Z" fill="white"/>
<path d="M267.425 26.694C265.544 23.724 261.266 24.585 258.518 23.294C257.693 22.823 257.854 21.705 258.718 21.263C260.674 20.386 263.843 20.87 265.825 22.063L267.424 18.648C263.182 16.314 253.695 16.194 253.395 22.555C253.277 27.804 259.511 26.948 262.856 28.231C263.686 28.664 263.501 29.811 262.702 30.216C260.498 31.187 256.663 30.315 254.596 29.016L252.995 32.461C255.935 34.332 261.15 34.797 264.394 33.569C267.34 32.66 268.924 29.286 267.425 26.694Z" fill="white"/>
<path d="M147 0L132 8.66V34H141.75L144.134 21.548C139.745 18.765 141.728 11.792 147 11.8C152.272 11.792 154.255 18.765 149.866 21.548L152.25 34H162V8.66L147 0Z" fill="white"/>
<path d="M180.509 40.9993V46.7933H172.375V40.9993H171V53.9993H172.375V48.0003H180.509V53.9993H181.865V40.9993H180.509Z" fill="white"/>
<path d="M193.193 54.1103C188.372 54.3253 184.958 49.2443 186.869 44.8703C188.914 39.5983 197.447 39.5833 199.498 44.8613C201.402 49.2353 198.023 54.3203 193.193 54.1103ZM193.193 52.8853C200.403 52.8823 200.402 42.1163 193.193 42.1143C185.941 42.1223 185.944 52.8763 193.193 52.8853Z" fill="white"/>
<path d="M209.74 54.1103C206.271 54.1033 204.357 52.0003 204.392 48.4453V40.9983H205.766V48.3893C205.752 51.2173 206.987 52.8593 209.74 52.8833C212.51 52.8603 213.745 51.2283 213.733 48.3893V40.9983H215.071V48.4453C215.103 51.9973 213.213 54.1033 209.74 54.1103Z" fill="white"/>
<path d="M224.208 54.1103C222.548 54.1243 220.479 53.5413 219.379 52.4203L219.917 51.3613C221.644 52.9983 225.633 53.7673 227.336 51.8073C227.835 51.1373 227.826 50.0073 227.262 49.4303C225.344 47.6523 221.734 48.4263 220.13 46.1343C217.801 40.9793 225.194 39.6403 228.515 42.0393L228.05 43.1353C226.519 42.0803 224.181 41.7383 222.535 42.3733C221.166 42.8193 220.559 44.5863 221.486 45.6423C222.162 46.3563 223.217 46.5643 224.207 46.8303C225.756 47.2503 227.639 47.5273 228.617 48.9103C230.234 51.8783 227.332 54.3333 224.208 54.1103Z" fill="white"/>
<path d="M233.455 53.9993V40.9993H234.83V53.9993H233.455Z" fill="white"/>
<path d="M249.984 40.9993V51.5423L241.608 40.9993H240.475V53.9993H241.85V43.4573L250.207 53.9993H251.339V40.9993H249.984Z" fill="white"/>
<path d="M266.141 51.8653C262.656 54.4053 257.032 52.0423 257.189 47.4993C256.966 42.7043 263.45 40.3233 266.679 43.6363L267.534 42.7633C263.599 38.6923 255.562 41.5603 255.834 47.4993C255.66 53.4883 263.217 56.0933 267.46 52.4573V47.4993H266.142V51.8653H266.141Z" fill="white"/>
</svg>
